<?xml version="1.0" encoding="utf-8"?>
<!-- Generator: Adobe Illustrator 15.1.0, SVG Export Plug-In . SVG Version: 6.00 Build 0)  -->
<!DOCTYPE svg PUBLIC "-//W3C//DTD SVG 1.1//EN" "http://www.w3.org/Graphics/SVG/1.1/DTD/svg11.dtd">
<svg version="1.1" id="Capa_1" xmlns="http://www.w3.org/2000/svg" xmlns:xlink="http://www.w3.org/1999/xlink" x="0px" y="0px"
	 width="400px" height="200px" viewBox="0 0 400 200" enable-background="new 0 0 400 200" xml:space="preserve">
<g>
	<path fill="#135084" d="M115.846,153.261l-65.169-0.454c-2.305,0-2.663,0.228-2.663-2.046v-47.665v-5.781v-49.81l67.702-8.052
		l-75.364,0.033v57.83v5.78v42.471v8.119c0,7.531-0.617,7.306,5.422,6.688l70.104-7.145L115.846,153.261z"/>
	<path fill="#81902C" d="M78.115,53.383c0-2.792,0-0.552,0-3.344l25.392-2.987c4.188-0.487,8.507,1.169,8.507,7.241
		c0,8.865-0.032,64.616-0.032,83.773l-12.859-1.98l-0.032-74.649c0-4.286-0.65-5.292-3.312-4.968
		c-2.663,0.324-2.89,0.519-4.318,0.779c0,2.013,0,3.215,0,4.61v72.96l-13.378-2.043l0.032-79.424V53.383z"/>
	<path fill="#AB4025" d="M55.32,139.559v2.272c0,3.897,0.098,3.864,5.228,3.864l55.265-0.064l-42.958-6.623
		c-2.338-0.424-2.338-0.26-2.338-3.021v-55.36v-5.779V62.149l-15.229-7.598v28.021v5.78c0,16.205,0,46.205,0,51.207H55.32
		L55.32,139.559z"/>
</g>
<g>
	<path fill="#135084" d="M171.339,89.035c-1.852,0.812-4.806,1.363-7.599,1.363c-8.248,0-12.729-5.033-12.729-11.656
		c0-7.5,5.195-11.948,12.891-11.948c3.052,0,5.65,0.682,7.403,1.493l1.396-4.903c-1.363-0.714-4.546-1.655-9.092-1.655
		c-11.365,0-19.125,7.11-19.125,17.241c0,9.936,6.981,16.561,18.313,16.561c4.545,0,8.149-0.91,9.676-1.688l-1.104-4.807
		L171.339,89.035L171.339,89.035z M198.97,75.56h-13.8v-8.248h14.611v-5.033h-20.878v32.633h21.659V89.88h-15.393v-9.286h13.8
		L198.97,75.56L198.97,75.56z M212.867,94.912V82.379c0-4.903-0.03-9.092-0.29-13.475l0.194-0.033
		c1.785,3.768,4.221,7.761,6.591,11.527l9.546,14.514h6.625V62.279h-5.812v12.112c0,4.708,0.03,8.669,0.52,13.021l-0.13,0.031
		c-1.655-3.668-3.639-7.305-6.138-11.136l-9.448-14.028h-7.471v32.633H212.867z M243.714,62.279v17.956
		c0,10.943,5.555,15.262,13.671,15.262c8.604,0,14.416-4.643,14.416-15.262V62.279h-6.234v18.217c0,6.785-2.889,10.13-7.889,10.13
		c-4.74,0-7.695-3.376-7.695-10.13V62.279h-6.235H243.714z M279.919,94.912h6.203V81.536h3.571c3.67,0.097,5.324,1.492,6.396,5.714
		c1.008,4.156,1.851,6.688,2.371,7.662h6.396c-0.715-1.298-1.656-5.195-2.793-9.253c-0.811-2.955-2.271-5.229-4.643-6.139v-0.129
		c2.986-0.974,6.202-3.766,6.202-8.149c0-2.793-1.169-5.131-2.955-6.526c-2.272-1.852-5.617-2.729-10.716-2.729
		c-3.93,0-7.598,0.326-10.034,0.716v32.209H279.919z M286.122,66.988c0.682-0.131,2.046-0.325,4.35-0.325
		c4.027,0,6.917,1.494,6.917,5.195c0,3.183-2.662,5.228-7.013,5.228h-4.254V67.02V66.988z"/>
	<path fill="#135084" d="M145.946,137.936h16.235v-4.188h-11.235v-23.185h-5v27.342V137.936z M170.786,137.936v-19.773h-5.034
		v19.773H170.786z M168.285,109.945c-1.656,0-2.792,1.169-2.792,2.729c0,1.492,1.104,2.661,2.76,2.661
		c1.753,0,2.825-1.169,2.825-2.661C171.046,111.114,169.974,109.945,168.285,109.945z M177.02,113.713v4.449h-2.825v3.734h2.825
		v9.285c0,2.598,0.487,4.385,1.559,5.521c0.941,1.006,2.469,1.622,4.286,1.622c1.591,0,2.89-0.194,3.604-0.486l-0.098-3.799
		c-0.454,0.13-1.104,0.259-1.948,0.259c-1.916,0-2.564-1.266-2.564-3.637v-8.735h4.74v-3.732h-4.74v-5.649l-4.871,1.169H177.02z
		 M199.133,117.738c-5.976,0-10.229,3.994-10.229,10.457c0,6.332,4.286,10.195,9.903,10.195c5.033,0,10.132-3.248,10.132-10.521
		C208.939,121.863,205.01,117.738,199.133,117.738z M199.003,121.408c3.41,0,4.773,3.54,4.773,6.625
		c0,3.961-1.981,6.785-4.839,6.785c-3.051,0-4.902-2.889-4.902-6.688c0-3.278,1.428-6.688,4.935-6.688L199.003,121.408z
		 M213.031,137.969h5V127.74c0-0.584,0.098-1.104,0.163-1.526c0.454-2.239,2.076-3.766,4.447-3.766c0.615,0,1.071,0.097,1.461,0.161
		v-4.707c-0.423-0.1-0.683-0.131-1.169-0.131c-2.11,0-4.417,1.429-5.391,4.221h-0.163l-0.162-3.766h-4.352
		c0.13,1.784,0.164,3.699,0.164,6.363L213.031,137.969L213.031,137.969z M242.741,137.969c-0.194-1.232-0.292-2.955-0.292-4.74
		v-7.144c0-4.287-1.819-8.313-8.15-8.313c-3.117,0-5.684,0.846-7.144,1.754l0.974,3.248c1.331-0.847,3.378-1.461,5.326-1.461
		c3.475,0,4.025,2.143,4.025,3.44v0.324c-7.306-0.032-11.722,2.468-11.722,7.469c0,3.021,2.24,5.877,6.2,5.877
		c2.566,0,4.612-1.104,5.845-2.63h0.132l0.324,2.208h4.514L242.741,137.969z M237.578,131.02c0,0.324-0.031,0.715-0.163,1.104
		c-0.454,1.429-1.915,2.727-3.895,2.727c-1.594,0-2.826-0.906-2.826-2.855c0-2.988,3.377-3.768,6.884-3.701V131.02z
		 M247.709,137.969h5.033v-28.802h-5.033V137.969z M271.314,137.969v-9.773c0-4.514-0.031-8.117-0.261-11.656l0.13-0.032
		c1.331,3.084,3.184,6.462,4.904,9.448l7.145,12.016h5.162V110.63h-4.611v9.546c0,4.189,0.131,7.695,0.455,11.365h-0.099
		c-1.266-2.955-2.823-6.139-4.676-9.157l-7.045-11.722h-5.685v27.34h4.578v-0.033H271.314z M302.941,117.771
		c-5.976,0-10.229,3.994-10.229,10.455c0,6.332,4.285,10.195,9.902,10.195c5.033,0,10.132-3.246,10.132-10.52
		C312.748,121.896,308.818,117.771,302.941,117.771z M302.811,121.439c3.409,0,4.773,3.541,4.773,6.625
		c0,3.961-1.98,6.785-4.839,6.785c-3.054,0-4.902-2.889-4.902-6.688c0-3.279,1.429-6.689,4.937-6.689L302.811,121.439z
		 M316.838,138.001h5.002v-10.229c0-0.584,0.098-1.103,0.162-1.525c0.454-2.24,2.078-3.766,4.447-3.766
		c0.617,0,1.072,0.097,1.461,0.162v-4.709c-0.422-0.098-0.682-0.131-1.168-0.131c-2.11,0-4.416,1.43-5.391,4.223h-0.162
		l-0.164-3.768h-4.35c0.129,1.786,0.161,3.702,0.161,6.364L316.838,138.001L316.838,138.001z M333.074,113.777v4.449h-2.825v3.733
		h2.825v9.286c0,2.598,0.486,4.384,1.559,5.521c0.939,1.006,2.468,1.623,4.285,1.623c1.592,0,2.891-0.195,3.605-0.486l-0.098-3.801
		c-0.455,0.131-1.105,0.261-1.949,0.261c-1.916,0-2.564-1.267-2.564-3.638v-8.734h4.74v-3.733h-4.74v-5.649l-4.871,1.17h0.033
		V113.777z M362.98,129.525c0.096-0.453,0.16-1.168,0.16-2.109c0-4.354-2.109-9.611-8.507-9.611c-6.332,0-9.646,5.163-9.646,10.617
		c0,6.04,3.769,9.969,10.197,9.969c2.856,0,5.194-0.519,6.883-1.233l-0.746-3.442c-1.493,0.585-3.148,0.91-5.486,0.91
		c-3.15,0-5.977-1.559-6.072-5.098h13.217V129.525z M349.764,126.052c0.194-2.046,1.492-4.838,4.577-4.838
		c3.313,0,4.124,2.986,4.093,4.838H349.764z"/>
</g>
</svg>
